<svg preserveAspectRatio="none" width="100%" height="100%" overflow="visible" style="display: block;" viewBox="0 0 30.192 38.019" fill="none" xmlns="http://www.w3.org/2000/svg">
<path id="location_on" d="M15.0995 18.7305C16.0945 18.7305 16.9452 18.3762 17.6515 17.6675C18.3582 16.9588 18.7115 16.107 18.7115 15.112C18.7115 14.117 18.3572 13.2662 17.6485 12.5595C16.9398 11.8532 16.0878 11.5 15.0925 11.5C14.0975 11.5 13.2468 11.8543 12.5405 12.563C11.8338 13.2717 11.4805 14.1237 11.4805 15.119C11.4805 16.114 11.8348 16.9647 12.5435 17.671C13.2522 18.3773 14.1042 18.7305 15.0995 18.7305ZM15.096 34.027C19.0087 30.5243 22.0028 27.1647 24.0785 23.948C26.1542 20.7313 27.192 17.914 27.192 15.496C27.192 11.85 26.0337 8.85267 23.717 6.504C21.4003 4.15533 18.5267 2.981 15.096 2.981C11.6653 2.981 8.79167 4.15533 6.475 6.504C4.15833 8.85267 3 11.85 3 15.496C3 17.914 4.03783 20.7313 6.1135 23.948C8.18917 27.1647 11.1833 30.5243 15.096 34.027ZM15.096 38.019C10.0627 33.6577 6.28833 29.5988 3.773 25.8425C1.25767 22.0858 0 18.637 0 15.496C0 10.8807 1.49283 7.14417 4.4785 4.2865C7.4645 1.42883 11.0037 0 15.096 0C19.1883 0 22.7275 1.42883 25.7135 4.2865C28.6992 7.14417 30.192 10.8807 30.192 15.496C30.192 18.637 28.9343 22.0858 26.419 25.8425C23.9037 29.5988 20.1293 33.6577 15.096 38.019Z" fill="var(--fill-0, white)"/>
</svg>
