<svg preserveAspectRatio="none" width="100%" height="100%" overflow="visible" style="display: block;" viewBox="0 0 41.9805 34.3845" fill="none" xmlns="http://www.w3.org/2000/svg">
<path id="partner_exchange" d="M20.9805 12.577L14.692 6.2885L20.9805 0L27.288 6.2885L20.9805 12.577ZM0 34.3845V26.8845C0 25.9178 0.3275 25.0993 0.9825 24.429C1.6375 23.7583 2.43167 23.4102 3.365 23.3845H9.5305C10.1332 23.3845 10.7057 23.532 11.248 23.827C11.79 24.122 12.2317 24.5335 12.573 25.0615C13.565 26.4255 14.795 27.487 16.263 28.246C17.731 29.005 19.3035 29.3845 20.9805 29.3845C22.6778 29.3845 24.2637 29.005 25.738 28.246C27.2127 27.487 28.4358 26.4255 29.4075 25.0615C29.7895 24.5335 30.2465 24.122 30.7785 23.827C31.3105 23.532 31.8612 23.3845 32.4305 23.3845H38.596C39.5497 23.4102 40.3522 23.7583 41.0035 24.429C41.6548 25.0993 41.9805 25.9178 41.9805 26.8845V34.3845H28.9805V29.6805C27.8395 30.5525 26.5908 31.2212 25.2345 31.6865C23.8778 32.1518 22.4598 32.3845 20.9805 32.3845C19.5345 32.3845 18.1313 32.1498 16.771 31.6805C15.4107 31.2115 14.1535 30.541 12.9995 29.669V34.3845H0ZM5.5575 20.6155C4.04483 20.6155 2.75 20.077 1.673 19C0.596 17.923 0.0575001 16.6282 0.0575001 15.1155C0.0575001 13.5692 0.596 12.266 1.673 11.206C2.75 10.1457 4.04483 9.6155 5.5575 9.6155C7.1035 9.6155 8.40667 10.1457 9.467 11.206C10.5273 12.266 11.0575 13.5692 11.0575 15.1155C11.0575 16.6282 10.5273 17.923 9.467 19C8.40667 20.077 7.1035 20.6155 5.5575 20.6155ZM36.4035 20.6155C34.8908 20.6155 33.596 20.077 32.519 19C31.442 17.923 30.9035 16.6282 30.9035 15.1155C30.9035 13.5692 31.442 12.266 32.519 11.206C33.596 10.1457 34.8908 9.6155 36.4035 9.6155C37.9495 9.6155 39.2527 10.1457 40.313 11.206C41.3733 12.266 41.9035 13.5692 41.9035 15.1155C41.9035 16.6282 41.3733 17.923 40.313 19C39.2527 20.077 37.9495 20.6155 36.4035 20.6155Z" fill="var(--fill-0, white)"/>
</svg>
