<svg preserveAspectRatio="none" width="100%" height="100%" overflow="visible" style="display: block;" viewBox="0 0 38 38" fill="none" xmlns="http://www.w3.org/2000/svg">
<path id="strategy" d="M6.5 16.846L0 13.1345V5.7115L6.5 2L13 5.7115V13.1345L6.5 16.846ZM6.5 13.4L10 11.4115V7.4345L6.5 5.446L3 7.4345V11.4115L6.5 13.4ZM27.769 17.704V14.227L34 17.8655V31.2885L22.5 38L11 31.2885V17.8655L17.2305 14.227V17.704L14 19.5885V29.5675L22.5 34.504L31 29.5675V19.5885L27.769 17.704ZM21 23V0H38L34.346 5.5L38 11H24V23H21Z" fill="var(--fill-0, white)"/>
</svg>
