<svg xmlns="http://www.w3.org/2000/svg" width="24.571" height="24.687" viewBox="0 0 24.571 24.687"><g transform="translate(-419.639 -656.736)"><g transform="translate(423.309 673.121) rotate(45)"><path d="M3.276,2.794.481,0H0L3.276,3.276,6.551,0H6.07Z" transform="translate(0 0)" fill="#414141" stroke="#414141" stroke-width="1"/></g><g transform="translate(420.993 662.721) rotate(-45)"><path d="M3.275.481.481,3.275H0L3.275,0,6.551,3.275H6.07Z" transform="translate(0 0)" fill="#414141" stroke="#414141" stroke-width="1"/></g><g transform="translate(442.857 675.437) rotate(135)"><path d="M3.275.481.481,3.275H0L3.275,0,6.551,3.275H6.07Z" transform="translate(0 0)" fill="#414141" stroke="#414141" stroke-width="1"/></g><g transform="translate(440.541 665.038) rotate(-135)"><path d="M3.275,2.794.481,0H0L3.275,3.275,6.551,0H6.07Z" transform="translate(0 0)" fill="#414141" stroke="#414141" stroke-width="1"/></g><line x1="15.383" y2="15.383" transform="translate(424.409 661.37)" fill="none" stroke="#414141" stroke-width="1.5"/><line x2="15.383" y2="15.383" transform="translate(424.409 661.37)" fill="none" stroke="#414141" stroke-width="1.5"/></g></svg>