<svg xmlns="http://www.w3.org/2000/svg" width="19.065" height="17.089" viewBox="0 0 19.065 17.089"><path d="M246.93,54.037l1.134,4.118a2.395,2.395,0,0,0,4.62-1.263l-.7-2.532h.377l8.66,3.454a.678.678,0,0,0,.253.044.7.7,0,0,0,.387-.12.692.692,0,0,0,.3-.568V53.231a3.009,3.009,0,0,0,0-6V43.514a.691.691,0,0,0-.942-.636L252.36,46.34H248.1a2.441,2.441,0,0,0-2.434,2.443V51.9a2.438,2.438,0,0,0,1.262,2.137Zm4.438,3.218a1.032,1.032,0,0,1-1.989.549l-.952-3.444h2.14Zm12-7.023a1.667,1.667,0,0,1-1.4,1.624V48.607a1.667,1.667,0,0,1,1.4,1.624ZM260.6,56.161l-7.423-2.966V47.489l7.423-2.967Zm-13.566-7.378A1.074,1.074,0,0,1,248.1,47.7h3.71v5.29H248.1a1.088,1.088,0,0,1-1.069-1.094Zm0,0" transform="translate(-245.668 -42.831)" fill="#FF0000"/></svg>
