<svg xmlns="http://www.w3.org/2000/svg" width="10.259" height="10.259" viewBox="0 0 10.259 10.259"><g transform="translate(-22 -22)" opacity="0.7"><g transform="translate(22 22)"><path d="M24.2,32.259h5.862a2.2,2.2,0,0,0,2.2-2.2v-2.2H30.794v2.2a.733.733,0,0,1-.733.733H24.2a.733.733,0,0,1-.733-.733V24.2a.733.733,0,0,1,.733-.733h2.2V22H24.2A2.2,2.2,0,0,0,22,24.2v5.862A2.2,2.2,0,0,0,24.2,32.259Z" transform="translate(-22 -22)" fill="red"/><path d="M42.34,27.5l1.037,1.037,4.03-4.03V26.4h1.466V22.733A.733.733,0,0,0,48.14,22H44.476v1.466H46.37Z" transform="translate(-38.614 -22)" fill="red"/></g></g></svg>