<svg xmlns="http://www.w3.org/2000/svg" width="11.438" height="12.285" viewBox="0 0 11.438 12.285"><g transform="translate(-23 -21)" opacity="0.7"><path d="M23,63.33a1.483,1.483,0,0,0,1.483,1.483h8.473a1.483,1.483,0,0,0,1.483-1.483V61H33.167v2.33a.212.212,0,0,1-.212.212H24.483a.212.212,0,0,1-.212-.212V61H23Z" transform="translate(0 -31.527)" fill="red"/><path d="M36.564,21v6.727l-1.906-1.906-.9.9,2.991,2.991a.635.635,0,0,0,.9,0l2.991-2.991-.9-.9-1.906,1.906V21Z" transform="translate(-8.481 0)" fill="red"/></g></svg>