<svg xmlns="http://www.w3.org/2000/svg" viewBox="0 0 137 69" width="137" height="69" role="img" aria-label="Essential Energy Training Academy">
  <title>Essential Energy Training Academy</title>
  <g transform="translate(0,69) scale(1,-1)">
  <svg x="-0.1370" y="0.0897" width="37.5106" height="41.7036" viewBox="0 0 37.5135 41.7095" overflow="visible"><path id="path1" d="M0 14.8067C13.3384 16.7361 16.4126 32.125 35.5854 32.125H37.5135V41.7095C16.7766 41.7095 10.0032 21.9487 0 20.1764V14.8067ZM0 0C9.48223 1.3553 14.0001 15.2061 37.5135 0.266726V9.69693C14.9012 21.8445 8.70692 7.67549 0 5.47398V0ZM0 7.55905C12.1396 9.64548 16.7251 24.0352 37.5135 16.2148V25.4419C16.464 30.7602 9.74337 14.4939 0 12.7216V7.55905Z" fill="#FF5300"/></svg>
  <svg x="10.4531" y="53.7924" width="117.6830" height="14.9730" viewBox="0 0 117.684 14.9773" overflow="visible"><path id="path3" d="M110.663 0.330362L110.993 1.47715C111.938 1.23344 112.523 1.3553 112.995 2.64425L113.239 3.30497L110.112 11.8064H111.522L113.854 5.06645H113.942L116.275 11.8064H117.684L114.097 2.11486C113.607 0.798825 112.781 0.177366 111.61 0.177366C111.169 0.177366 110.795 0.264019 110.663 0.330362ZM98.3808 11.8064H99.6351V10.4836H99.7447C100.098 11.388 100.911 11.916 102.011 11.916C103.123 11.916 103.861 11.388 104.279 10.4836H104.367C104.801 11.3596 105.687 11.916 106.898 11.916C108.406 11.916 109.473 10.9967 109.473 9.00913V3.3483H108.174V9.00913C108.174 10.2588 107.383 10.7489 106.459 10.7489C105.269 10.7489 104.587 9.94605 104.587 8.85478V3.3483H103.267V9.14046C103.267 10.1058 102.579 10.7489 101.594 10.7489C100.581 10.7489 99.6784 9.87294 99.6784 8.63409V3.3483H98.3808V11.8064ZM95.8492 8.2604C95.8492 9.69151 94.9468 10.7489 93.5382 10.7489C92.0526 10.7489 91.123 9.57643 91.0351 8.2604H95.8492ZM89.7307 7.51167C89.7307 10.1099 91.2489 11.916 93.5382 11.916C95.2999 11.916 97.1698 10.8369 97.1698 7.68633V7.13663H91.0351C91.0946 5.32505 92.1459 4.33938 93.6708 4.33938C94.6883 4.33938 95.4528 4.77941 95.7843 5.66218L97.0386 5.3088C96.6421 4.03068 95.3879 3.17364 93.6708 3.17364C91.2272 3.17364 89.7307 4.9121 89.7307 7.51167ZM87.0693 7.57666C87.0693 9.47082 86.2317 10.7489 84.6473 10.7489C82.9966 10.7489 82.182 9.36115 82.182 7.57666C82.182 5.77185 83.0182 4.33938 84.6473 4.33938C86.2101 4.33938 87.0693 5.66218 87.0693 7.57666ZM80.8831 7.55499C80.8831 10.2209 82.3579 11.916 84.493 11.916C86.1438 11.916 86.6498 10.9019 86.9366 10.4619H87.0462V14.6253H88.3452V3.3483H87.0909V4.64808H86.9366C86.6498 4.18503 86.1005 3.17364 84.4714 3.17364C82.3579 3.17364 80.8831 4.86742 80.8831 7.55499ZM78.3759 6.41091V7.59967C78.1553 7.3343 76.6805 7.18131 76.1298 7.11496C75.1177 6.98228 74.2152 6.67358 74.2152 5.68385C74.2152 4.77941 74.9634 4.31772 75.9985 4.31772C77.5383 4.31772 78.3759 5.35349 78.3759 6.41091ZM72.9163 5.74884C72.9163 7.68633 74.6279 8.03429 76.1961 8.23873C77.7372 8.43506 78.3759 8.3809 78.3759 9.00913V9.05245C78.3759 10.1383 77.7859 10.7706 76.5925 10.7706C75.3545 10.7706 74.6766 10.1099 74.3911 9.49248L73.1585 9.93387C73.8188 11.476 75.2719 11.916 76.5479 11.916C77.6263 11.916 79.6734 11.6073 79.6734 8.92112V3.3483H78.3759V4.49373H78.3096C78.0457 3.94403 77.2745 3.14927 75.7996 3.14927C74.1936 3.14927 72.9163 4.09703 72.9163 5.74884ZM65.0388 7.53333C65.0388 10.1099 66.5569 11.916 68.8463 11.916C70.6283 11.916 71.9718 10.8586 72.191 9.27315H70.8935C70.6946 10.0435 70.0126 10.7489 68.8679 10.7489C67.3498 10.7489 66.3364 9.49248 66.3364 7.57666C66.3364 5.61615 67.3268 4.33938 68.8679 4.33938C69.88 4.33938 70.6499 4.88908 70.8935 5.81518H72.191C71.9718 4.31772 70.7392 3.17364 68.8679 3.17364C66.4906 3.17364 65.0388 5.00146 65.0388 7.53333ZM61.9376 7.75267L60.1326 12.8408H60.0433L58.2397 7.75267H61.9376ZM55.2453 3.3483L59.3843 14.6253H60.7929L64.9305 3.3483H63.5003L62.3665 6.54225H57.8107L56.6769 3.3483H55.2453ZM49.572 7.643C49.572 9.47082 48.7358 10.7489 47.15 10.7489C45.5006 10.7489 44.6847 9.36115 44.6847 7.643C44.6847 5.88152 45.5223 4.64808 47.15 4.64808C48.7128 4.64808 49.572 5.77185 49.572 7.643ZM43.7389 1.69649L44.7727 2.4222C45.1191 1.95645 45.6589 1.14679 47.1946 1.14679C48.5599 1.14679 49.549 1.78585 49.549 3.1953V4.9121H49.4394C49.1525 4.44905 48.6248 3.47963 46.9741 3.47963C44.9269 3.47963 43.3871 4.97844 43.3871 7.62134C43.3871 10.2209 44.862 11.916 46.9957 11.916C48.6465 11.916 49.1755 10.9019 49.461 10.4619H49.5936V11.8064H50.8479V3.10594C50.8479 0.926096 49.2202 0 47.1946 0C45.3071 0 44.2666 0.809657 43.7389 1.69649ZM36.7842 3.3483H35.4853V11.8064H36.7409V10.4836H36.8505C37.247 11.3447 38.0385 11.916 39.3158 11.916C41.0261 11.916 42.1775 10.8803 42.1775 8.72209V3.3483H40.8786V8.63409C40.8786 9.96095 40.1466 10.7489 38.941 10.7489C37.6975 10.7489 36.7842 9.91221 36.7842 8.43506V3.3483ZM32.5843 11.8064H33.8833V3.3483H32.5843V11.8064ZM32.3191 14.0959C32.3191 14.582 32.7386 14.9773 33.2446 14.9773C33.7507 14.9773 34.1688 14.582 34.1688 14.0959C34.1688 13.6125 33.7507 13.2158 33.2446 13.2158C32.7386 13.2158 32.3191 13.6125 32.3191 14.0959ZM25.585 3.3483H24.2874V11.8064H25.5417V10.4836H25.6513C26.0477 11.3447 26.8393 11.916 28.1165 11.916C29.8282 11.916 30.9783 10.8803 30.9783 8.72209V3.3483H29.6793V8.63409C29.6793 9.96095 28.9473 10.7489 27.7417 10.7489C26.4983 10.7489 25.585 9.91221 25.585 8.43506V3.3483ZM21.3851 11.8064H22.684V3.3483H21.3851V11.8064ZM21.1199 14.0959C21.1199 14.582 21.5393 14.9773 22.0454 14.9773C22.5514 14.9773 22.9695 14.582 22.9695 14.0959C22.9695 13.6125 22.5514 13.2158 22.0454 13.2158C21.5393 13.2158 21.1199 13.6125 21.1199 14.0959ZM18.4801 6.41091V7.59967C18.2595 7.3343 16.786 7.18131 16.2353 7.11496C15.2233 6.98228 14.3208 6.67358 14.3208 5.68385C14.3208 4.77941 15.069 4.31772 16.1027 4.31772C17.6439 4.31772 18.4801 5.35349 18.4801 6.41091ZM13.0218 5.74884C13.0218 7.68633 14.7334 8.03429 16.3016 8.23873C17.8428 8.43506 18.4801 8.3809 18.4801 9.00913V9.05245C18.4801 10.1383 17.8915 10.7706 16.6967 10.7706C15.4587 10.7706 14.7835 10.1099 14.4967 9.49248L13.264 9.93387C13.9243 11.476 15.3775 11.916 16.6534 11.916C17.7318 11.916 19.779 11.6073 19.779 8.92112V3.3483H18.4801V4.49373H18.4138C18.1499 3.94403 17.38 3.14927 15.9052 3.14927C14.2991 3.14927 13.0218 4.09703 13.0218 5.74884ZM8.42414 11.8064H9.67842V10.5282H9.76637C10.0749 11.3663 10.9557 11.9377 11.9678 11.9377C12.1599 11.9377 12.5023 11.9269 12.6497 11.916V10.5959C12.5618 10.6176 12.2046 10.6826 11.8582 10.6826C10.6256 10.6826 9.72308 9.84451 9.72308 8.70043V3.3483H8.42414V11.8064ZM0 14.6253H8.4512V13.4149H4.90754V3.3483H3.54366V13.4149H0V14.6253Z" fill="#002263"/></svg>
  <svg x="46.8951" y="6.5964" width="10.3024" height="15.9390" viewBox="0 0 10.3049 15.9332" overflow="visible"><path id="path5" d="M0 15.9332H10.3049V12.8597H3.27575V9.87836H10.3049V6.80491H3.27575V3.07209H10.3049V0H0V15.9332Z" fill="#002263"/></svg>
  <svg x="58.4031" y="10.9503" width="10.0695" height="11.9232" viewBox="0 0 10.0776 11.9282" overflow="visible"><path id="path7" d="M0 3.68814H3.27575C3.36641 2.869 4.0497 2.52781 5.23227 2.52781C6.23218 2.52781 6.89247 2.9367 6.89247 3.62044C6.89247 4.18909 6.39184 4.48425 5.55024 4.57632L3.77638 4.75775C1.6832 4.98521 0.363972 6.28364 0.363972 8.21842C0.363972 10.5174 2.18383 11.9282 5.09561 11.9282C7.96139 11.9282 9.80425 10.7449 9.96392 8.30914H6.82482C6.77882 9.08224 6.09688 9.40177 5.04961 9.40177C4.07135 9.40177 3.45706 9.03756 3.45706 8.39985C3.45706 7.85421 3.93469 7.53468 4.88995 7.42095L6.71117 7.21651C8.80299 6.98905 10.0776 5.69062 10.0776 3.80187C10.0776 1.45684 8.14405 0 5.09561 0C2.02417 0 0.113657 1.2524 0 3.68814Z" fill="#002263"/></svg>
  <svg x="69.3494" y="10.9503" width="10.0695" height="11.9232" viewBox="0 0 10.0776 11.9282" overflow="visible"><path id="path7" d="M0 3.68814H3.27575C3.36641 2.869 4.0497 2.52781 5.23227 2.52781C6.23218 2.52781 6.89247 2.9367 6.89247 3.62044C6.89247 4.18909 6.39184 4.48425 5.55024 4.57632L3.77638 4.75775C1.6832 4.98521 0.363972 6.28364 0.363972 8.21842C0.363972 10.5174 2.18383 11.9282 5.09561 11.9282C7.96139 11.9282 9.80425 10.7449 9.96392 8.30914H6.82482C6.77882 9.08224 6.09688 9.40177 5.04961 9.40177C4.07135 9.40177 3.45706 9.03756 3.45706 8.39985C3.45706 7.85421 3.93469 7.53468 4.88995 7.42095L6.71117 7.21651C8.80299 6.98905 10.0776 5.69062 10.0776 3.80187C10.0776 1.45684 8.14405 0 5.09561 0C2.02417 0 0.113657 1.2524 0 3.68814Z" fill="#002263"/></svg>
  <svg x="80.5012" y="10.9503" width="11.1655" height="11.9232" viewBox="0 0 11.1695 11.9269" overflow="visible"><path id="path11" d="M7.96139 7.23817V7.28421C7.96139 8.55826 7.14279 9.42343 5.59489 9.42343C4.11735 9.42343 3.20675 8.55826 3.11609 7.23817H7.96139ZM0 6.03181C0 9.60486 2.27449 11.9269 5.59489 11.9269C9.07631 11.9269 11.1695 9.69693 11.1695 6.12252C11.1695 5.71363 11.1465 5.30339 11.1005 4.82545H3.13909C3.27575 3.41464 4.20801 2.64019 5.73155 2.64019C6.75582 2.64019 7.41611 3.07209 7.71107 3.68678H10.9638C10.3049 1.45684 8.57568 0 5.7099 0C2.27449 0 0 2.38971 0 6.03181Z" fill="#002263"/></svg>
  <svg x="93.2970" y="10.9503" width="10.4531" height="11.5851" viewBox="0 0 10.4415 11.5857" overflow="visible"><path id="path13" d="M0 11.2445H2.79812V10.1058C3.45706 11.0847 4.66264 11.5857 5.96022 11.5857C8.71234 11.5857 10.4415 9.81066 10.4415 6.82793V0H7.25645V6.48673C7.25645 7.98961 6.57451 8.71803 5.29993 8.71803C3.9807 8.71803 3.1851 7.82984 3.1851 6.39602V0H0V11.2445Z" fill="#002263"/></svg>
  <svg x="104.4899" y="8.0316" width="8.8365" height="14.5038" viewBox="0 0 8.83817 14.4994" overflow="visible"><path id="path15" d="M2.30967 2.98138V8.46755H0V11.2445H2.30967V14.4994H5.49477V11.2445H8.83817V8.46755H5.49477V3.75583C5.49477 3.09511 5.74508 2.77693 6.47303 2.77693H8.83817V0H5.3121C3.26493 0 2.30967 0.819134 2.30967 2.98138Z" fill="#002263"/></svg>
  <svg x="114.6827" y="6.6447" width="3.3428" height="15.8907" viewBox="0 0 3.34341 15.8885" overflow="visible"><path id="path17" d="M0.0906567 11.2445H3.27575V0H0.0906567V11.2445ZM0 15.8885H3.34341V12.9288H0V15.8885Z" fill="#002263"/></svg>
  <svg x="119.5325" y="10.9434" width="11.3025" height="11.9301" viewBox="0 0 11.3061 11.9282" overflow="visible"><path id="path19" d="M4.75464 2.57249C6.00622 2.57249 7.00613 3.23321 7.00613 4.59799V5.12196L4.64099 4.91752C3.63972 4.82545 3.16209 4.30283 3.16209 3.68814C3.16209 3.0044 3.70873 2.57249 4.75464 2.57249ZM0 3.57441C0 5.71363 1.38824 7.12444 4.11735 7.30722L7.00613 7.48865V7.96659C7.00613 8.94549 6.50685 9.35574 5.36893 9.35574C4.25401 9.35574 3.79939 9.03756 3.68573 8.30914H0.546635C0.773949 10.6081 2.34349 11.9282 5.59624 11.9282C8.34836 11.9282 10.0099 10.5621 10.0099 8.17239V3.18718C10.0099 2.98273 10.1006 2.869 10.3049 2.869H11.3061V0.341193H9.03166C8.23471 0.341193 7.78008 0.774454 7.73408 1.45684C7.12114 0.570009 5.86956 0 4.32167 0C1.6832 0 0 1.36613 0 3.57441Z" fill="#002263"/></svg>
  <svg x="132.0269" y="6.5964" width="5.1101" height="15.9390" viewBox="0 0 5.11862 15.9345" overflow="visible"><path id="path21" d="M0 2.34503V15.9345H3.1851V3.48369C3.1851 3.00575 3.36641 2.77693 3.89004 2.77693H5.11862V0H2.52481C0.795598 0 0 0.660723 0 2.34503Z" fill="#002263"/></svg>
  <svg x="46.8951" y="25.5231" width="10.3024" height="15.9321" viewBox="0 0 10.3049 15.9345" overflow="visible"><path id="path23" d="M0 15.9345H10.3049V12.8611H3.27575V9.87971H10.3049V6.80626H3.27575V3.07345H10.3049V0H0V15.9345Z" fill="#002263"/></svg>
  <svg x="59.1977" y="29.8701" width="10.4394" height="11.5851" viewBox="0 0 10.4415 11.5857" overflow="visible"><path id="path25" d="M0 11.2445H2.79812V10.1058C3.45706 11.0847 4.66264 11.5857 5.96022 11.5857C8.71234 11.5857 10.4415 9.81066 10.4415 6.82928V0H7.25645V6.48673C7.25645 7.98961 6.57451 8.71803 5.29993 8.71803C3.9807 8.71803 3.1851 7.82984 3.1851 6.39602V0H0V11.2445Z" fill="#002263"/></svg>
  <svg x="71.0756" y="29.8701" width="11.1655" height="11.9232" viewBox="0 0 11.1695 11.9269" overflow="visible"><path id="path27" d="M7.96139 7.23817V7.28421C7.96139 8.55826 7.14279 9.42343 5.59489 9.42343C4.11735 9.42343 3.20675 8.55826 3.11609 7.23817H7.96139ZM0 6.03181C0 9.60622 2.27449 11.9269 5.59489 11.9269C9.07631 11.9269 11.1695 9.69693 11.1695 6.12252C11.1695 5.71363 11.1465 5.30339 11.1005 4.82545H3.13909C3.27575 3.41329 4.20801 2.64019 5.73155 2.64019C6.75582 2.64019 7.41611 3.07209 7.71107 3.68678H10.9638C10.3049 1.45684 8.57568 0 5.7099 0C2.27449 0 0 2.38971 0 6.03181Z" fill="#002263"/></svg>
  <svg x="83.8714" y="30.2082" width="7.4254" height="11.2470" viewBox="0 0 7.41611 11.2445" overflow="visible"><path id="path29" d="M0 11.2445H2.79812V9.26367C3.07144 10.5391 3.98069 11.2445 5.41358 11.2445H7.41611V8.46755H5.02661C3.77638 8.46755 3.1851 7.82984 3.1851 6.55579V0H0V11.2445Z" fill="#002263"/></svg>
  <svg x="91.2420" y="29.8701" width="12.4670" height="15.6837" viewBox="0 0 12.4644 15.6827" overflow="visible"><path id="path31" d="M5.50424 10.1288C6.52715 10.1288 7.16444 10.7665 7.16444 11.6994C7.16444 12.6553 6.5055 13.293 5.50424 13.293C4.47997 13.293 3.82103 12.6553 3.82103 11.6994C3.82103 10.7665 4.47997 10.1288 5.50424 10.1288ZM4.04835 2.34367H7.43776C8.02904 2.34367 8.48367 2.6632 8.48367 3.25488C8.48367 3.7775 8.07505 4.09703 7.48376 4.09703H4.07135C3.36641 4.09703 2.97943 3.73282 2.97943 3.20884C2.97943 2.68487 3.3434 2.34367 4.04835 2.34367ZM0 2.86765C0 3.7775 0.454627 4.59799 1.36388 5.12061C0.772596 5.55387 0.431625 6.21324 0.431625 6.94166C0.431625 7.80683 0.909254 8.71803 2.20548 9.12692C1.29623 9.83232 0.86325 10.8112 0.86325 11.8362C0.86325 13.9754 2.5018 15.6827 5.50424 15.6827C7.25645 15.6827 8.82599 14.8175 9.34827 13.5882V13.9307C9.34827 15.091 10.1222 15.3415 10.7812 15.3415H12.4644V12.5646H10.5308C10.3035 12.5646 10.1452 12.4278 10.1452 12.1313V11.5857C10.1452 9.17295 8.25636 7.73913 5.68555 7.73913H3.88869C3.41106 7.73913 3.13774 7.48865 3.13774 7.07841C3.13774 6.69118 3.43406 6.4407 3.88869 6.4407H7.73408C10.1452 6.4407 11.4875 5.28037 11.4875 3.41329C11.4875 1.45684 10.3725 0 7.68807 0H3.61672C1.02291 0 0 1.34176 0 2.86765Z" fill="#002263"/></svg>
  <svg x="104.3666" y="30.2082" width="12.4259" height="14.9799" viewBox="0 0 12.4197 14.9787" overflow="visible"><path id="path33" d="M0.274671 2.61311H2.81165C3.40294 2.61311 3.76691 2.86359 3.97122 3.34153L4.57198 4.64402L0 14.9787H3.61672L6.25519 8.28612L8.872 14.9787H12.4197L6.57857 1.79803C6.07793 0.637706 5.37299 0 3.75744 0H0.294967L0.274671 2.61311Z" fill="#002263"/></svg>
</g>
</svg>