<svg width="137" height="69" viewBox="0 0 137 69" fill="none" xmlns="http://www.w3.org/2000/svg">
<g clip-path="url(#clip0_2417_1538)">
<path d="M-0.142578 26.9897C13.1959 25.0603 16.27 9.67142 35.4428 9.67142H37.3709V0.086867C16.634 0.086867 9.86058 19.8476 -0.142578 21.62V26.9897ZM-0.142578 41.7964C9.33965 40.4411 13.8575 26.5903 37.3709 41.5297V32.0995C14.7586 19.9519 8.56435 34.1209 -0.142578 36.3224V41.7964ZM-0.142578 34.2373C11.9971 32.1509 16.5826 17.7612 37.3709 25.5816V16.3545C16.3214 11.0362 9.60079 27.3024 -0.142578 29.0748V34.2373Z" fill="#FF5300"/>
<path d="M121.122 68.4367L121.452 67.2899C122.398 67.5336 122.982 67.4118 123.454 66.1228L123.698 65.4621L120.571 56.9607H121.981L124.314 63.7006H124.402L126.734 56.9607H128.143L124.556 66.6522C124.066 67.9683 123.241 68.5897 122.069 68.5897C121.628 68.5897 121.254 68.5031 121.122 68.4367ZM108.84 56.9607H110.094V58.2835H110.204C110.557 57.3791 111.37 56.851 112.47 56.851C113.583 56.851 114.32 57.3791 114.738 58.2835H114.826C115.26 57.4075 116.147 56.851 117.358 56.851C118.865 56.851 119.932 57.7704 119.932 59.758V65.4188H118.633V59.758C118.633 58.5083 117.842 58.0181 116.918 58.0181C115.728 58.0181 115.047 58.821 115.047 59.9123V65.4188H113.726V59.6266C113.726 58.6613 113.039 58.0181 112.054 58.0181C111.04 58.0181 110.138 58.8941 110.138 60.133V65.4188H108.84V56.9607ZM106.308 60.5067C106.308 59.0756 105.406 58.0181 103.997 58.0181C102.512 58.0181 101.582 59.1907 101.494 60.5067H106.308ZM100.19 61.2554C100.19 58.6572 101.708 56.851 103.997 56.851C105.759 56.851 107.629 57.9301 107.629 61.0808V61.6305H101.494C101.554 63.442 102.605 64.4277 104.13 64.4277C105.148 64.4277 105.912 63.9877 106.244 63.1049L107.498 63.4583C107.101 64.7364 105.847 65.5935 104.13 65.5935C101.686 65.5935 100.19 63.855 100.19 61.2554ZM97.5285 61.1904C97.5285 59.2963 96.6909 58.0181 95.1065 58.0181C93.4558 58.0181 92.6412 59.4059 92.6412 61.1904C92.6412 62.9952 93.4774 64.4277 95.1065 64.4277C96.6693 64.4277 97.5285 63.1049 97.5285 61.1904ZM91.3423 61.2121C91.3423 58.5462 92.8171 56.851 94.9523 56.851C96.603 56.851 97.109 57.8652 97.3959 58.3052H97.5055V54.1418H98.8044V65.4188H97.5501V64.119H97.3959C97.109 64.5821 96.5597 65.5935 94.9306 65.5935C92.8171 65.5935 91.3423 63.8997 91.3423 61.2121ZM88.8351 62.3562V61.1674C88.6145 61.4328 87.1397 61.5858 86.589 61.6521C85.5769 61.7848 84.6744 62.0935 84.6744 63.0832C84.6744 63.9877 85.4227 64.4494 86.4578 64.4494C87.9975 64.4494 88.8351 63.4136 88.8351 62.3562ZM83.3755 63.0183C83.3755 61.0808 85.0871 60.7328 86.6553 60.5284C88.1964 60.332 88.8351 60.3862 88.8351 59.758V59.7146C88.8351 58.6288 88.2452 57.9965 87.0518 57.9965C85.8137 57.9965 85.1358 58.6572 84.8503 59.2746L83.6177 58.8332C84.278 57.2911 85.7312 56.851 87.0071 56.851C88.0855 56.851 90.1327 57.1597 90.1327 59.846V65.4188H88.8351V64.2734H88.7688C88.5049 64.8231 87.7337 65.6178 86.2589 65.6178C84.6528 65.6178 83.3755 64.6701 83.3755 63.0183ZM75.498 61.2338C75.498 58.6572 77.0161 56.851 79.3055 56.851C81.0875 56.851 82.4311 57.9085 82.6503 59.4939H81.3527C81.1538 58.7236 80.4718 58.0181 79.3272 58.0181C77.809 58.0181 76.7956 59.2746 76.7956 61.1904C76.7956 63.1509 77.786 64.4277 79.3272 64.4277C80.3392 64.4277 81.1091 63.878 81.3527 62.9519H82.6503C82.4311 64.4494 81.1984 65.5935 79.3272 65.5935C76.9498 65.5935 75.498 63.7656 75.498 61.2338ZM72.3968 61.0144L70.5918 55.9263H70.5025L68.6989 61.0144H72.3968ZM65.7046 65.4188L69.8436 54.1418H71.2521L75.3898 65.4188H73.9596L72.8257 62.2248H68.27L67.1361 65.4188H65.7046ZM60.0312 61.1241C60.0312 59.2963 59.195 58.0181 57.6092 58.0181C55.9599 58.0181 55.144 59.4059 55.144 61.1241C55.144 62.8856 55.9815 64.119 57.6092 64.119C59.172 64.119 60.0312 62.9952 60.0312 61.1241ZM54.1982 67.0706L55.2319 66.3449C55.5783 66.8106 56.1182 67.6203 57.6539 67.6203C59.0191 67.6203 60.0082 66.9812 60.0082 65.5718V63.855H59.8986C59.6118 64.318 59.0841 65.2875 57.4333 65.2875C55.3862 65.2875 53.8464 63.7886 53.8464 61.1458C53.8464 58.5462 55.3212 56.851 57.455 56.851C59.1057 56.851 59.6348 57.8652 59.9203 58.3052H60.0529V56.9607H61.3071V65.6611C61.3071 67.841 59.6794 68.7671 57.6539 68.7671C55.7664 68.7671 54.7259 67.9574 54.1982 67.0706ZM47.2435 65.4188H45.9445V56.9607H47.2002V58.2835H47.3098C47.7062 57.4224 48.4977 56.851 49.775 56.851C51.4853 56.851 52.6367 57.8868 52.6367 60.045V65.4188H51.3378V60.133C51.3378 58.8061 50.6058 58.0181 49.4002 58.0181C48.1568 58.0181 47.2435 58.8549 47.2435 60.332V65.4188ZM43.0436 56.9607H44.3425V65.4188H43.0436V56.9607ZM42.7784 54.6712C42.7784 54.1851 43.1978 53.7898 43.7039 53.7898C44.2099 53.7898 44.628 54.1851 44.628 54.6712C44.628 55.1546 44.2099 55.5513 43.7039 55.5513C43.1978 55.5513 42.7784 55.1546 42.7784 54.6712ZM36.0442 65.4188H34.7466V56.9607H36.0009V58.2835H36.1105C36.5069 57.4224 37.2985 56.851 38.5758 56.851C40.2874 56.851 41.4375 57.8868 41.4375 60.045V65.4188H40.1385V60.133C40.1385 58.8061 39.4065 58.0181 38.201 58.0181C36.9575 58.0181 36.0442 58.8549 36.0442 60.332V65.4188ZM31.8443 56.9607H33.1432V65.4188H31.8443V56.9607ZM31.5791 54.6712C31.5791 54.1851 31.9985 53.7898 32.5046 53.7898C33.0106 53.7898 33.4287 54.1851 33.4287 54.6712C33.4287 55.1546 33.0106 55.5513 32.5046 55.5513C31.9985 55.5513 31.5791 55.1546 31.5791 54.6712ZM28.9393 62.3562V61.1674C28.7187 61.4328 27.2453 61.5858 26.6946 61.6521C25.6825 61.7848 24.78 62.0935 24.78 63.0832C24.78 63.9877 25.5282 64.4494 26.562 64.4494C28.1031 64.4494 28.9393 63.4136 28.9393 62.3562ZM23.4811 63.0183C23.4811 61.0808 25.1927 60.7328 26.7609 60.5284C28.302 60.332 28.9393 60.3862 28.9393 59.758V59.7146C28.9393 58.6288 28.3507 57.9965 27.156 57.9965C25.9179 57.9965 25.2427 58.6572 24.9559 59.2746L23.7233 58.8332C24.3835 57.2911 25.8367 56.851 27.1127 56.851C28.1911 56.851 30.2382 57.1597 30.2382 59.846V65.4188H28.9393V64.2734H28.873C28.6091 64.8231 27.8393 65.6178 26.3644 65.6178C24.7583 65.6178 23.4811 64.6701 23.4811 63.0183ZM18.8834 56.9607H20.1376V58.2388H20.2256C20.5341 57.4008 21.4149 56.8294 22.427 56.8294C22.6192 56.8294 22.9615 56.8402 23.109 56.851V58.1711C23.021 58.1495 22.6638 58.0845 22.3174 58.0845C21.0848 58.0845 20.1823 58.9226 20.1823 60.0667V65.4188H18.8834V56.9607ZM10.4592 54.1418H18.9104V55.3522H15.3668V65.4188H14.0029V55.3522H10.4592V54.1418Z" fill="#002263"/>
<path d="M46.8923 6.59904H57.1972V9.67249H50.1681V12.6539H57.1972V15.7273H50.1681V19.4601H57.1972V22.5322H46.8923V6.59904Z" fill="#002263"/>
<path d="M58.4019 19.1869H61.6776C61.7683 20.006 62.4516 20.3472 63.6341 20.3472C64.634 20.3472 65.2943 19.9383 65.2943 19.2546C65.2943 18.6859 64.7937 18.3907 63.9521 18.2987L62.1782 18.1172C60.0851 17.8898 58.7658 16.5914 58.7658 14.6566C58.7658 12.3576 60.5857 10.9468 63.4975 10.9468C66.3632 10.9468 68.2061 12.1301 68.3658 14.5659H65.2267C65.1807 13.7928 64.4987 13.4732 63.4515 13.4732C62.4732 13.4732 61.8589 13.8374 61.8589 14.4751C61.8589 15.0208 62.3365 15.3403 63.2918 15.454L65.113 15.6585C67.2048 15.886 68.4794 17.1844 68.4794 19.0731C68.4794 21.4182 66.5459 22.875 63.4975 22.875C60.426 22.875 58.5155 21.6226 58.4019 19.1869Z" fill="#002263"/>
<path d="M69.3438 19.1869H72.6195C72.7102 20.006 73.3935 20.3472 74.576 20.3472C75.5759 20.3472 76.2362 19.9383 76.2362 19.2546C76.2362 18.6859 75.7356 18.3907 74.894 18.2987L73.1201 18.1172C71.027 17.8898 69.7077 16.5914 69.7077 14.6566C69.7077 12.3576 71.5276 10.9468 74.4394 10.9468C77.3051 10.9468 79.148 12.1301 79.3077 14.5659H76.1686C76.1226 13.7928 75.4406 13.4732 74.3934 13.4732C73.4151 13.4732 72.8008 13.8374 72.8008 14.4751C72.8008 15.0208 73.2784 15.3403 74.2337 15.454L76.0549 15.6585C78.1467 15.886 79.4213 17.1844 79.4213 19.0731C79.4213 21.4182 77.4878 22.875 74.4394 22.875C71.3679 22.875 69.4574 21.6226 69.3438 19.1869Z" fill="#002263"/>
<path d="M88.458 15.6359V15.5898C88.458 14.3158 87.6394 13.4506 86.0915 13.4506C84.6139 13.4506 83.7033 14.3158 83.6127 15.6359H88.458ZM80.4966 16.8422C80.4966 13.2692 82.7711 10.9472 86.0915 10.9472C89.5729 10.9472 91.6661 13.1771 91.6661 16.7515C91.6661 17.1604 91.6431 17.5706 91.5971 18.0486H83.6357C83.7723 19.4594 84.7046 20.2338 86.2281 20.2338C87.2524 20.2338 87.9127 19.8019 88.2077 19.1872H91.4604C90.8015 21.4172 89.0723 22.874 86.2065 22.874C82.7711 22.874 80.4966 20.4843 80.4966 16.8422Z" fill="#002263"/>
<path d="M93.3025 11.2882H96.1006V12.4269C96.7596 11.448 97.9651 10.947 99.2627 10.947C102.015 10.947 103.744 12.7221 103.744 15.7048V22.5327H100.559V16.046C100.559 14.5431 99.877 13.8147 98.6024 13.8147C97.2832 13.8147 96.4876 14.7029 96.4876 16.1367V22.5327H93.3025V11.2882Z" fill="#002263"/>
<path d="M106.793 19.5508V14.0647H104.484V11.2877H106.793V8.03287H109.978V11.2877H113.322V14.0647H109.978V18.7764C109.978 19.4371 110.229 19.7553 110.957 19.7553H113.322V22.5322H109.796C107.749 22.5322 106.793 21.7131 106.793 19.5508Z" fill="#002263"/>
<path d="M114.777 11.2882H117.962V22.5327H114.777V11.2882ZM114.687 6.64421H118.03V9.60393H114.687V6.64421Z" fill="#002263"/>
<path d="M124.285 20.3025C125.537 20.3025 126.537 19.6418 126.537 18.277V17.753L124.172 17.9575C123.17 18.0496 122.693 18.5722 122.693 19.1869C122.693 19.8706 123.239 20.3025 124.285 20.3025ZM119.531 19.3006C119.531 17.1614 120.919 15.7506 123.648 15.5678L126.537 15.3863V14.9084C126.537 13.9295 126.037 13.5193 124.899 13.5193C123.785 13.5193 123.33 13.8374 123.216 14.5659H120.077C120.304 12.2669 121.874 10.9468 125.127 10.9468C127.879 10.9468 129.54 12.3129 129.54 14.7026V19.6878C129.54 19.8923 129.631 20.006 129.835 20.006H130.837V22.5338H128.562C127.765 22.5338 127.311 22.1005 127.265 21.4182C126.652 22.305 125.4 22.875 123.852 22.875C121.214 22.875 119.531 21.5089 119.531 19.3006Z" fill="#002263"/>
<path d="M132.023 20.1887V6.59915H135.209V19.05C135.209 19.5279 135.39 19.7568 135.913 19.7568H137.142V22.5337H134.548C132.819 22.5337 132.023 21.873 132.023 20.1887Z" fill="#002263"/>
<path d="M46.8923 25.5215H57.1972V28.595H50.1681V31.5763H57.1972V34.6498H50.1681V38.3826H57.1972V41.4561H46.8923V25.5215Z" fill="#002263"/>
<path d="M59.198 30.2106H61.9961V31.3493C62.6551 30.3704 63.8606 29.8694 65.1582 29.8694C67.9103 29.8694 69.6395 31.6444 69.6395 34.6258V41.4551H66.4544V34.9683C66.4544 33.4655 65.7725 32.737 64.4979 32.737C63.1787 32.737 62.3831 33.6252 62.3831 35.0591V41.4551H59.198V30.2106Z" fill="#002263"/>
<path d="M79.0327 34.5582V34.5122C79.0327 33.2381 78.2141 32.373 76.6662 32.373C75.1886 32.373 74.278 33.2381 74.1874 34.5582H79.0327ZM71.0713 35.7646C71.0713 32.1902 73.3458 29.8695 76.6662 29.8695C80.1476 29.8695 82.2408 32.0995 82.2408 35.6739C82.2408 36.0828 82.2178 36.493 82.1718 36.9709H74.2104C74.347 38.3831 75.2793 39.1562 76.8028 39.1562C77.8271 39.1562 78.4874 38.7243 78.7824 38.1096H82.0351C81.3762 40.3395 79.647 41.7964 76.7812 41.7964C73.3458 41.7964 71.0713 39.4067 71.0713 35.7646Z" fill="#002263"/>
<path d="M83.8772 30.2106H86.6753V32.1914C86.9486 30.916 87.8579 30.2106 89.2908 30.2106H91.2933V32.9875H88.9038C87.6536 32.9875 87.0623 33.6252 87.0623 34.8993V41.4551H83.8772V30.2106Z" fill="#002263"/>
<path d="M96.7513 35.4229C97.7742 35.4229 98.4115 34.7852 98.4115 33.8523C98.4115 32.8965 97.7526 32.2588 96.7513 32.2588C95.727 32.2588 95.0681 32.8965 95.0681 33.8523C95.0681 34.7852 95.727 35.4229 96.7513 35.4229ZM95.2954 43.2081H98.6848C99.2761 43.2081 99.7307 42.8886 99.7307 42.2969C99.7307 41.7743 99.3221 41.4547 98.7308 41.4547H95.3184C94.6135 41.4547 94.2265 41.8189 94.2265 42.3429C94.2265 42.8669 94.5905 43.2081 95.2954 43.2081ZM91.2471 42.6841C91.2471 41.7743 91.7017 40.9538 92.611 40.4312C92.0197 39.9979 91.6787 39.3385 91.6787 38.6101C91.6787 37.7449 92.1563 36.8337 93.4526 36.4248C92.5433 35.7194 92.1103 34.7405 92.1103 33.7156C92.1103 31.5764 93.7489 29.8691 96.7513 29.8691C98.5035 29.8691 100.073 30.7342 100.595 31.9636V31.6211C100.595 30.4607 101.369 30.2102 102.028 30.2102H103.711V32.9872H101.778C101.551 32.9872 101.392 33.1239 101.392 33.4204V33.9661C101.392 36.3788 99.5034 37.8126 96.9326 37.8126H95.1358C94.6581 37.8126 94.3848 38.0631 94.3848 38.4734C94.3848 38.8606 94.6811 39.1111 95.1358 39.1111H98.9811C101.392 39.1111 102.735 40.2714 102.735 42.1385C102.735 44.0949 101.62 45.5518 98.9351 45.5518H94.8638C92.27 45.5518 91.2471 44.21 91.2471 42.6841Z" fill="#002263"/>
<path d="M104.646 42.5759H107.183C107.774 42.5759 108.138 42.3254 108.342 41.8474L108.943 40.5449L104.371 30.2103H107.988L110.626 36.9028L113.243 30.2103H116.791L110.95 43.3909C110.449 44.5513 109.744 45.189 108.129 45.189H104.666L104.646 42.5759Z" fill="#002263"/>
</g>
<defs>
<clipPath id="clip0_2417_1538">
<rect width="137" height="69" fill="white"/>
</clipPath>
</defs>
</svg>
