<?xml version="1.0" encoding="UTF-8"?> <svg xmlns="http://www.w3.org/2000/svg" viewBox="0 0 302.44 291.61"><defs><style>.cls-1{fill:red;}.cls-2,.cls-3,.cls-4{fill:none;}.cls-3{stroke:red;stroke-width:6px;}.cls-4{stroke:#fff;stroke-linecap:round;stroke-miterlimit:10;stroke-width:5px;}.cls-5{fill:#fff;}</style></defs><g id="White"><circle id="Ellipse_90" data-name="Ellipse 90" class="cls-1" cx="151.22" cy="145.8" r="65"></circle><g id="Ellipse_91" data-name="Ellipse 91"><circle class="cls-2" cx="151.22" cy="145.8" r="79.5"></circle><circle class="cls-3" cx="151.22" cy="145.8" r="76.5"></circle></g><path class="cls-4" d="M151.54,127.36V108.12a1.42,1.42,0,0,1,1.44-1.43,39.13,39.13,0,1,1-40.54,40.54"></path><path class="cls-5" d="M109.87,148.78s-13.32-28,25.84-39c0,0-2.48,5.58-1.55,10.76,0,0,7.54,21.06-16,29.4,0,0-1.6-16.58,5.81-24.49,0,0-9.21,5.61-8.94,23.79Z"></path><line class="cls-4" x1="145.29" y1="159.02" x2="145.29" y2="165.63"></line><line class="cls-4" x1="158.04" y1="159.02" x2="158.04" y2="165.63"></line><path class="cls-5" d="M165.73,139.7c-1.28-3.5-4.95-8.21-10.17-9.36a1.59,1.59,0,0,1-1.11-.82,5.17,5.17,0,0,1-.4-2.41h-5a5.17,5.17,0,0,1-.4,2.41,1.61,1.61,0,0,1-1.11.82c-5.22,1.15-8.9,5.86-10.17,9.36a18.6,18.6,0,0,0-1.06,6.32v5.67c0,2.42,3,2.13,3,2.13h24.46s3,.29,3-2.13V146A18.6,18.6,0,0,0,165.73,139.7Z"></path><path class="cls-1" d="M151.06,133.37l0,.07q-1.65,4.74-3.32,9.48a.34.34,0,0,0,.34.45,8.35,8.35,0,0,1,1.8,0,1.63,1.63,0,0,1,1.4,1.48c.11,1.27.27,3.49.22,4.61a.09.09,0,0,0,.17.05c1.33-2.94,2.52-5.94,3.7-8.94.34-.88-.66-1-1.3-.9a2.79,2.79,0,0,1-1.44-.12,1.64,1.64,0,0,1-.78-1.14,5.61,5.61,0,0,1,0-1.42,11.35,11.35,0,0,0-.25-3.39c0-.2-.24-.46-.41-.33A.31.31,0,0,0,151.06,133.37Z"></path></g></svg> 