<svg xmlns="http://www.w3.org/2000/svg" width="48.098" height="32.769" viewBox="0 0 48.098 32.769"><g opacity="0.725"><path d="M17.569,2.258a2,2,0,0,1,3.248,0L36.108,23.526a2,2,0,0,1-1.624,3.168H3.9a2,2,0,0,1-1.624-3.168Z" transform="translate(0 6.076)" fill="red"/><path d="M9.787,2.969a2,2,0,0,1,3.457,0l8.037,13.808a2,2,0,0,1-1.728,3.006H3.478A2,2,0,0,1,1.75,16.777Z" transform="translate(25.066 12.986)" fill="red"/><circle cx="5.215" cy="5.215" r="5.215" transform="translate(27.956)" fill="red"/></g></svg>